solid
facet normal -4000 0 0
outer loop
vertex 0 0 400
vertex 0 10 400
vertex 0 0 0
endloop
endfacet
facet normal -4000 -0 0
outer loop
vertex 0 0 0
vertex 0 10 400
vertex 0 10 0
endloop
endfacet
facet normal -0 16000 0
outer loop
vertex 0 10 400
vertex 40 10 400
vertex 0 10 0
endloop
endfacet
facet normal 0 16000 0
outer loop
vertex 0 10 0
vertex 40 10 400
vertex 40 10 0
endloop
endfacet
facet normal 4000 0 0
outer loop
vertex 40 10 400
vertex 40 0 400
vertex 40 10 0
endloop
endfacet
facet normal 4000 -0 0
outer loop
vertex 40 10 0
vertex 40 0 400
vertex 40 0 0
endloop
endfacet
facet normal -0 -16000 -0
outer loop
vertex 40 0 400
vertex 0 0 400
vertex 40 0 0
endloop
endfacet
facet normal 0 -16000 0
outer loop
vertex 40 0 0
vertex 0 0 400
vertex 0 0 0
endloop
endfacet
facet normal 0 -0 400
outer loop
vertex 0 0 400
vertex 40 0 400
vertex 0 10 400
endloop
endfacet
facet normal -0 -0 400
outer loop
vertex 0 10 400
vertex 40 0 400
vertex 40 10 400
endloop
endfacet
facet normal 0 0 -400
outer loop
vertex 40 0 0
vertex 0 0 0
vertex 40 10 0
endloop
endfacet
facet normal -0 -0 -400
outer loop
vertex 40 10 0
vertex 0 0 0
vertex 0 10 0
endloop
endfacet
endsolid
